# Blender 4.3.2
# www.blender.org
mtllib carrot_growth_2_var1.mtl
o carrotbody
v 0.387634 0.841714 -0.428335
v 0.059629 -1.628216 -0.084428
v 0.406813 0.822254 0.440213
v 0.043810 -1.609078 0.103778
v -0.466738 0.925979 -0.490454
v -0.136226 -1.574262 -0.115149
v -0.445827 0.867599 0.389192
v -0.144049 -1.605307 0.084527
v 0.404391 0.024098 -0.402967
v -0.502051 0.085612 0.453313
v 0.389206 0.017653 0.509787
v -0.537315 0.068065 -0.443236
v -0.534571 0.504391 0.480706
v 0.502496 0.488633 -0.523791
v 0.437502 0.476596 0.480240
v -0.495382 0.516537 -0.499555
v 0.224187 -0.742405 -0.277298
v 0.185746 -0.696002 0.357381
v -0.452294 -0.596874 -0.367362
v -0.459140 -0.669592 0.293411
v 0.218245 1.097596 0.204149
v -0.222583 1.108925 0.189670
v 0.208548 1.102292 -0.196180
v -0.231706 1.123012 -0.214903
v 0.127504 1.153042 0.107088
v -0.127504 1.153042 0.107088
v 0.127504 1.153042 -0.107088
v -0.127504 1.153042 -0.107088
v -0.132213 -1.666875 -0.014867
v -0.028529 -1.678488 -0.102020
v 0.124508 -1.270787 -0.168559
v -0.515754 0.691824 0.453758
v 0.093823 -1.233348 0.210179
v -0.277546 -1.164140 -0.230045
v -0.015749 0.837629 0.578595
v 0.557256 0.819833 0.016546
v -0.040514 -1.684524 0.097619
v -0.616314 0.908940 -0.061238
v -0.043310 0.891144 -0.623287
v 0.063171 -1.696138 0.010466
v 0.473897 0.279338 -0.474284
v -0.510244 -0.226459 0.391439
v 0.428177 0.265082 0.501273
v -0.512837 0.295153 -0.465861
v -0.068344 0.045041 -0.592724
v 0.568639 0.010382 0.062480
v -0.691523 0.087332 -0.004031
v -0.054540 0.052673 0.651173
v -0.516853 0.313912 0.481359
v 0.468274 0.673154 -0.508169
v 0.440247 0.657128 0.477141
v -0.498937 0.736907 -0.526288
v 0.013324 0.504852 -0.697700
v 0.654682 0.477393 -0.024091
v -0.699659 0.515686 -0.007108
v -0.058302 0.488227 0.666501
v 0.319916 -0.303989 -0.347327
v 0.297904 -0.280709 0.463796
v -0.533596 -0.195650 -0.428017
v -0.291104 -1.224299 0.170859
v -0.140943 -0.685264 0.446845
v -0.579595 -0.617114 -0.051416
v 0.328845 -0.735323 0.054482
v -0.109807 -0.667173 -0.443779
v -0.000405 1.101500 0.272369
v 0.295998 1.096939 0.007097
v -0.309746 1.118973 -0.015729
v -0.013344 1.114413 -0.281001
v -0.329355 1.012584 0.284941
v -0.353636 1.053338 -0.357527
v 0.288747 0.993593 -0.305294
v 0.314174 0.980009 0.325706
v -0.000000 1.153042 0.130554
v 0.155445 1.153042 0.000000
v -0.155445 1.153042 -0.000000
v -0.000000 1.153042 -0.130554
v -0.170438 1.149288 -0.145684
v 0.167543 1.146698 -0.143343
v 0.168755 1.146111 0.144340
v -0.169298 1.147528 0.142530
v -0.462050 1.041616 -0.045011
v -0.041958 0.668747 0.649702
v -0.687646 0.723595 -0.040156
v -0.014191 -1.843707 -0.000904
v 0.634561 0.655911 -0.011623
v -0.011127 0.710759 -0.701481
v -0.106966 -0.249114 -0.540539
v 0.464690 -0.307592 0.072583
v -0.677701 -0.195812 -0.032638
v -0.106044 -0.254290 0.580484
v -0.014807 0.286823 -0.650333
v 0.632140 0.266149 0.014571
v -0.695948 0.310593 0.006672
v -0.049001 0.289919 0.671576
v -0.101582 -1.238447 0.259868
v -0.353162 -1.191607 -0.038451
v 0.179912 -1.269920 0.029790
v -0.071667 -1.223080 -0.268529
v -0.001668 1.148214 -0.198649
v 0.422015 0.978146 0.018925
v -0.037105 1.028560 -0.450798
v -0.002930 0.991202 0.424711
v -0.000000 1.153042 -0.000000
v 0.231700 1.146029 0.000887
v -0.233418 1.148784 -0.001966
v -0.000051 1.146600 0.197570
vn -0.6283 0.7546 -0.1893
vn -0.6301 0.7124 0.3090
vn -0.4905 0.8311 0.2621
vn -0.4090 0.9045 -0.1212
vn 0.3449 0.0335 0.9380
vn 0.3182 0.2980 0.9000
vn -0.3339 0.4244 0.8416
vn -0.3638 0.1442 0.9203
vn -0.9370 0.1227 0.3270
vn -0.8462 0.4113 0.3387
vn -0.9076 0.2638 -0.3267
vn -0.9273 -0.0337 -0.3729
vn -0.5809 -0.5264 -0.6209
vn 0.6526 -0.4576 -0.6038
vn 0.5444 -0.4503 0.7077
vn -0.6892 -0.5461 0.4762
vn 0.9410 0.1638 -0.2961
vn 0.8303 0.4841 -0.2761
vn 0.8902 0.3085 0.3351
vn 0.9233 0.0347 0.3826
vn -0.3524 -0.0898 -0.9315
vn -0.2902 0.2822 -0.9144
vn 0.3825 0.4809 -0.7889
vn 0.3573 0.0819 -0.9304
vn -0.2646 -0.2063 -0.9420
vn -0.2871 -0.0972 -0.9530
vn 0.3649 -0.2286 -0.9025
vn 0.3862 -0.2189 -0.8961
vn 0.9160 -0.2631 -0.3028
vn 0.9003 -0.2951 -0.3200
vn 0.8774 -0.2998 0.3745
vn 0.8559 -0.3126 0.4119
vn -0.9240 -0.2033 0.3240
vn -0.9257 -0.0654 0.3725
vn -0.9416 -0.0220 -0.3361
vn -0.9101 -0.2165 -0.3534
vn 0.2444 -0.3037 0.9209
vn 0.2664 -0.2427 0.9328
vn -0.4178 -0.1516 0.8958
vn -0.4277 -0.2390 0.8718
vn -0.3277 -0.1061 -0.9388
vn -0.3544 -0.1340 -0.9255
vn 0.3209 -0.2497 -0.9136
vn 0.3297 -0.3127 -0.8908
vn 0.8990 -0.3069 -0.3125
vn 0.9378 -0.1767 -0.2989
vn 0.9203 -0.0142 0.3910
vn 0.9151 -0.1441 0.3766
vn -0.9275 -0.0710 0.3669
vn -0.9410 -0.0387 0.3362
vn -0.9280 -0.0115 -0.3724
vn -0.9370 0.0325 -0.3479
vn 0.3171 -0.0523 0.9469
vn 0.3454 0.0596 0.9365
vn -0.3704 -0.0121 0.9288
vn -0.3937 -0.1029 0.9135
vn 0.2303 -0.2996 0.9259
vn 0.2431 -0.2949 0.9241
vn -0.4238 -0.3164 0.8487
vn -0.4065 -0.3553 0.8418
vn -0.8982 -0.3995 0.1835
vn -0.9072 -0.3408 0.2464
vn -0.8577 -0.3508 -0.3759
vn -0.8379 -0.4008 -0.3704
vn 0.9403 -0.2380 -0.2434
vn 0.9304 -0.2395 -0.2773
vn 0.8549 -0.2637 0.4468
vn 0.8609 -0.2486 0.4440
vn -0.2538 -0.3476 -0.9026
vn -0.2636 -0.3047 -0.9153
vn 0.3866 -0.2541 -0.8865
vn 0.3687 -0.2829 -0.8855
vn 0.1947 0.8667 -0.4592
vn -0.0793 0.9392 -0.3341
vn -0.0154 0.9972 -0.0738
vn 0.0304 0.9950 -0.0954
vn 0.7382 0.6235 0.2574
vn 0.7205 0.6459 -0.2524
vn 0.6621 0.7068 -0.2492
vn 0.6403 0.7322 0.2322
vn 0.3492 0.7220 -0.5973
vn -0.1274 0.7735 -0.6208
vn -0.0683 0.9055 -0.4189
vn 0.2840 0.8124 -0.5092
vn -0.2477 0.6928 0.6773
vn 0.2490 0.6682 0.7011
vn 0.2044 0.7856 0.5839
vn -0.1924 0.7935 0.5773
vn -0.0000 1.0000 -0.0000
vn 0.5546 0.8004 0.2274
vn 0.5826 0.7763 -0.2407
vn 0.1034 0.9940 -0.0353
vn 0.1056 0.9937 0.0380
vn -0.3138 0.9423 -0.1166
vn -0.4142 0.8861 0.2077
vn -0.0725 0.9969 0.0315
vn -0.0596 0.9980 -0.0196
vn -0.1612 0.8453 0.5093
vn 0.1723 0.8371 0.5193
vn 0.0314 0.9929 0.1149
vn -0.0249 0.9941 0.1058
vt 0.614583 0.250000
vt 0.615451 0.125000
vt 0.623915 0.125000
vt 0.623698 0.250000
vt 0.625000 0.000000
vt 0.625000 0.000000
vt 0.625000 0.125000
vt 0.625000 0.250000
vt 0.562500 0.750000
vt 0.592448 0.750000
vt 0.592665 0.875000
vt 0.562500 0.875000
vt 0.614583 0.750000
vt 0.615451 0.875000
vt 0.625000 1.000000
vt 0.593750 1.000000
vt 0.562500 1.000000
vt 0.562500 0.000000
vt 0.593750 0.000000
vt 0.592665 0.125000
vt 0.562500 0.125000
vt 0.614583 0.250000
vt 0.592448 0.250000
vt 0.562500 0.250000
vt 0.125000 0.500000
vt 0.250000 0.500000
vt 0.247396 0.625000
vt 0.125000 0.625000
vt 0.375000 0.500000
vt 0.348958 0.625000
vt 0.375000 0.750000
vt 0.250000 0.750000
vt 0.125000 0.750000
vt 0.562500 0.500000
vt 0.592448 0.500000
vt 0.592448 0.625000
vt 0.562500 0.625000
vt 0.614583 0.500000
vt 0.614583 0.625000
vt 0.614583 0.750000
vt 0.592448 0.750000
vt 0.562500 0.750000
vt 0.562500 0.250000
vt 0.592448 0.250000
vt 0.592448 0.375000
vt 0.562500 0.375000
vt 0.614583 0.375000
vt 0.437500 0.250000
vt 0.468750 0.250000
vt 0.468750 0.375000
vt 0.437500 0.375000
vt 0.500000 0.250000
vt 0.500000 0.375000
vt 0.500000 0.500000
vt 0.468750 0.500000
vt 0.437500 0.500000
vt 0.468750 0.625000
vt 0.437500 0.625000
vt 0.500000 0.625000
vt 0.500000 0.750000
vt 0.468750 0.750000
vt 0.437500 0.750000
vt 0.437500 0.000000
vt 0.468750 0.000000
vt 0.468750 0.125000
vt 0.437500 0.125000
vt 0.500000 0.000000
vt 0.500000 0.125000
vt 0.468750 0.250000
vt 0.437500 0.250000
vt 0.437500 0.750000
vt 0.468750 0.750000
vt 0.468750 0.875000
vt 0.437500 0.875000
vt 0.500000 0.750000
vt 0.500000 0.875000
vt 0.500000 1.000000
vt 0.468750 1.000000
vt 0.437500 1.000000
vt 0.531250 0.250000
vt 0.531250 0.375000
vt 0.531250 0.500000
vt 0.531250 0.625000
vt 0.531250 0.750000
vt 0.531250 0.000000
vt 0.531250 0.125000
vt 0.531250 0.750000
vt 0.531250 0.875000
vt 0.531250 1.000000
vt 0.405599 0.750000
vt 0.406250 0.875000
vt 0.375000 0.875000
vt 0.406250 1.000000
vt 0.375000 1.000000
vt 0.375000 0.000000
vt 0.406250 0.000000
vt 0.406250 0.125000
vt 0.375000 0.125000
vt 0.406250 0.250000
vt 0.375000 0.250000
vt 0.405599 0.500000
vt 0.403646 0.625000
vt 0.437500 0.500000
vt 0.437500 0.625000
vt 0.406250 0.375000
vt 0.375000 0.375000
vt 0.437500 0.375000
vt 0.625000 0.500000
vt 0.625000 0.375000
vt 0.625000 0.375000
vt 0.625868 0.500000
vt 0.625000 0.250000
vt 0.625000 0.250000
vt 0.625000 0.500000
vt 0.614583 0.750000
vt 0.614583 0.625000
vt 0.623698 0.625000
vt 0.623698 0.750000
vt 0.614583 0.500000
vt 0.623698 0.500000
vt 0.625000 0.500000
vt 0.625000 0.625000
vt 0.625000 0.750000
vt 0.614583 0.375000
vt 0.623698 0.375000
vt 0.623698 0.250000
vt 0.623915 0.875000
vt 0.625000 1.000000
vt 0.623698 0.750000
vt 0.625000 0.750000
vt 0.625000 0.875000
vt 0.750000 0.500000
vt 0.753472 0.625000
vt 0.659722 0.625000
vt 0.875000 0.500000
vt 0.875000 0.625000
vt 0.875000 0.750000
vt 0.750000 0.750000
vt 0.625000 0.750000
vt 0.628472 0.625000
vt 0.625868 0.750000
vt 0.659722 0.625000
s 0
usemtl Material
f 5/1/1 38/2/1 81/3/1 70/4/1
f 38/2/2 7/5/2 69/6/2 81/3/2
f 81/3/3 69/6/3 22/5/3 67/7/3
f 70/4/4 81/3/4 67/7/4 24/8/4
f 15/9/5 51/10/5 82/11/5 56/12/5
f 51/10/6 3/13/6 35/14/6 82/11/6
f 82/11/7 35/14/7 7/15/7 32/16/7
f 56/12/8 82/11/8 32/16/8 13/17/8
f 13/18/9 32/19/9 83/20/9 55/21/9
f 32/19/10 7/5/10 38/2/10 83/20/10
f 83/20/11 38/2/11 5/22/11 52/23/11
f 55/21/12 83/20/12 52/23/12 16/24/12
f 6/25/13 30/26/13 84/27/13 29/28/13
f 30/26/14 2/29/14 40/30/14 84/27/14
f 84/27/15 40/30/15 4/31/15 37/32/15
f 29/28/16 84/27/16 37/32/16 8/33/16
f 14/34/17 50/35/17 85/36/17 54/37/17
f 50/35/18 1/38/18 36/39/18 85/36/18
f 85/36/19 36/39/19 3/40/19 51/41/19
f 54/37/20 85/36/20 51/41/20 15/42/20
f 16/43/21 52/44/21 86/45/21 53/46/21
f 52/44/22 5/1/22 39/47/22 86/45/22
f 86/45/23 39/47/23 1/38/23 50/35/23
f 53/46/24 86/45/24 50/35/24 14/34/24
f 19/48/25 59/49/25 87/50/25 64/51/25
f 59/49/26 12/52/26 45/53/26 87/50/26
f 87/50/27 45/53/27 9/54/27 57/55/27
f 64/51/28 87/50/28 57/55/28 17/56/28
f 17/56/29 57/55/29 88/57/29 63/58/29
f 57/55/30 9/54/30 46/59/30 88/57/30
f 88/57/31 46/59/31 11/60/31 58/61/31
f 63/58/32 88/57/32 58/61/32 18/62/32
f 20/63/33 42/64/33 89/65/33 62/66/33
f 42/64/34 10/67/34 47/68/34 89/65/34
f 89/65/35 47/68/35 12/52/35 59/69/35
f 62/66/36 89/65/36 59/69/36 19/70/36
f 18/71/37 58/72/37 90/73/37 61/74/37
f 58/72/38 11/75/38 48/76/38 90/73/38
f 90/73/39 48/76/39 10/77/39 42/78/39
f 61/74/40 90/73/40 42/78/40 20/79/40
f 12/52/41 44/80/41 91/81/41 45/53/41
f 44/80/42 16/43/42 53/46/42 91/81/42
f 91/81/43 53/46/43 14/34/43 41/82/43
f 45/53/44 91/81/44 41/82/44 9/54/44
f 9/54/45 41/82/45 92/83/45 46/59/45
f 41/82/46 14/34/46 54/37/46 92/83/46
f 92/83/47 54/37/47 15/42/47 43/84/47
f 46/59/48 92/83/48 43/84/48 11/60/48
f 10/67/49 49/85/49 93/86/49 47/68/49
f 49/85/50 13/18/50 55/21/50 93/86/50
f 93/86/51 55/21/51 16/24/51 44/80/51
f 47/68/52 93/86/52 44/80/52 12/52/52
f 11/75/53 43/87/53 94/88/53 48/76/53
f 43/87/54 15/9/54 56/12/54 94/88/54
f 94/88/55 56/12/55 13/17/55 49/89/55
f 48/76/56 94/88/56 49/89/56 10/77/56
f 4/31/57 33/90/57 95/91/57 37/92/57
f 33/90/58 18/71/58 61/74/58 95/91/58
f 95/91/59 61/74/59 20/79/59 60/93/59
f 37/92/60 95/91/60 60/93/60 8/94/60
f 8/95/61 60/96/61 96/97/61 29/98/61
f 60/96/62 20/63/62 62/66/62 96/97/62
f 96/97/63 62/66/63 19/70/63 34/99/63
f 29/98/64 96/97/64 34/99/64 6/100/64
f 2/29/65 31/101/65 97/102/65 40/30/65
f 31/101/66 17/103/66 63/104/66 97/102/66
f 97/102/67 63/104/67 18/71/67 33/90/67
f 40/30/68 97/102/68 33/90/68 4/31/68
f 6/100/69 34/99/69 98/105/69 30/106/69
f 34/99/70 19/70/70 64/107/70 98/105/70
f 98/105/71 64/107/71 17/103/71 31/101/71
f 30/106/72 98/105/72 31/101/72 2/29/72
f 23/108/73 68/109/73 99/110/73 78/111/73
f 68/109/74 24/8/74 77/112/74 99/110/74
f 99/110/75 77/112/75 28/113/75 76/110/75
f 78/111/76 99/110/76 76/110/76 27/114/76
f 3/115/77 36/116/77 100/117/77 72/118/77
f 36/116/78 1/119/78 71/120/78 100/117/78
f 100/117/79 71/120/79 23/121/79 66/122/79
f 72/118/80 100/117/80 66/122/80 21/123/80
f 1/119/81 39/124/81 101/125/81 71/120/81
f 39/124/82 5/1/82 70/126/82 101/125/82
f 101/125/83 70/126/83 24/8/83 68/110/83
f 71/120/84 101/125/84 68/110/84 23/121/84
f 7/15/85 35/14/85 102/127/85 69/128/85
f 35/14/86 3/40/86 72/129/86 102/127/86
f 102/127/87 72/129/87 21/130/87 65/131/87
f 69/128/88 102/127/88 65/131/88 22/15/88
f 27/114/89 76/132/89 103/133/89 74/134/89
f 76/132/89 28/135/89 75/136/89 103/133/89
f 103/133/89 75/136/89 26/137/89 73/138/89
f 74/134/89 103/133/89 73/138/89 25/139/89
f 21/130/90 66/122/90 104/140/90 79/141/90
f 66/122/91 23/108/91 78/111/91 104/140/91
f 104/140/92 78/111/92 27/114/92 74/142/92
f 79/141/93 104/140/93 74/142/93 25/139/93
f 24/8/94 67/7/94 105/7/94 77/112/94
f 67/7/95 22/5/95 80/6/95 105/7/95
f 105/7/96 80/6/96 26/6/96 75/7/96
f 77/112/97 105/7/97 75/7/97 28/113/97
f 22/15/98 65/131/98 106/131/98 80/128/98
f 65/131/99 21/130/99 79/141/99 106/131/99
f 106/131/100 79/141/100 25/139/100 73/131/100
f 80/128/101 106/131/101 73/131/101 26/128/101
o carrotleaves
v 0.000000 1.015073 -0.200000
v 0.000000 1.901262 -0.438173
v 0.173205 1.015073 -0.100000
v 0.248383 1.260864 -0.206089
v 0.173205 1.015073 0.100000
v 0.507235 2.037899 0.219086
v 0.000000 1.015073 0.200000
v 0.032741 1.309305 0.232849
v -0.173205 1.015073 0.100000
v -0.256422 1.868109 0.219086
v -0.173205 1.015073 -0.100000
v -0.256422 1.513225 -0.219086
vn 0.2710 -0.2965 -0.9158
vn 0.9517 -0.3068 -0.0127
vn 0.3970 -0.2135 0.8926
vn -0.3904 -0.1377 0.9103
vn -0.9902 -0.1220 0.0678
vn -0.4213 -0.2503 -0.8717
vn -0.0000 -1.0000 -0.0000
vt 1.000000 0.500000
vt 1.000000 1.000000
vt 0.833333 1.000000
vt 0.833333 0.500000
vt 0.666667 1.000000
vt 0.666667 0.500000
vt 0.500000 1.000000
vt 0.500000 0.500000
vt 0.333333 1.000000
vt 0.333333 0.500000
vt 0.166667 1.000000
vt 0.166667 0.500000
vt -0.000000 1.000000
vt -0.000000 0.500000
vt 0.750000 0.490000
vt 0.957846 0.370000
vt 0.957846 0.130000
vt 0.750000 0.010000
vt 0.542154 0.130000
vt 0.542154 0.370000
s 0
usemtl Material.001
f 107/143/102 108/144/102 110/145/102 109/146/102
f 109/146/103 110/145/103 112/147/103 111/148/103
f 111/148/104 112/147/104 114/149/104 113/150/104
f 113/150/105 114/149/105 116/151/105 115/152/105
f 115/152/106 116/151/106 118/153/106 117/154/106
f 117/154/107 118/153/107 108/155/107 107/156/107
f 107/157/108 109/158/108 111/159/108 113/160/108 115/161/108 117/162/108
